<svg width="338" height="249" viewBox="0 0 338 249" fill="none" xmlns="http://www.w3.org/2000/svg">
<g clip-path="url(#clip0)">
<path d="M158.498 241.423C158.498 245.229 122.973 245.634 79.2491 248.314C35.5663 250.991 0 245.229 0 241.423C0 237.618 35.7301 229.961 79.2491 234.533C122.973 239.127 158.498 237.618 158.498 241.423Z" fill="#E6E6E6"/>
<path d="M325.602 0.000415125H231.668C227.135 0.000410294 222.737 1.51263 219.197 4.28848C215.657 7.06433 213.185 10.9386 212.188 15.2745L164.726 221.708C164.208 223.96 164.199 226.295 164.699 228.551C165.199 230.806 166.196 232.927 167.62 234.765C169.045 236.603 170.862 238.112 172.944 239.189C175.027 240.265 177.324 240.881 179.675 240.995L276.24 245.66C281.41 245.91 286.497 244.307 290.551 241.149C294.604 237.991 297.348 233.495 298.269 228.5L325.193 82.5491L327.196 83.1103L332.348 55.4471L330.286 54.9416L337.802 14.2014C338.123 12.4565 338.049 10.6633 337.583 8.94989C337.117 7.23644 336.271 5.64487 335.106 4.28864C333.941 2.93241 332.485 1.84492 330.842 1.10369C329.2 0.36246 327.41 -0.014251 325.602 0.000412205L325.602 0.000415125Z" fill="#3F3D56"/>
<path d="M244.034 4.45057H233.069C229.92 4.45057 226.866 5.50658 224.414 7.44329C221.961 9.38 220.258 12.0809 219.587 15.0977L174.029 219.847C173.767 221.026 173.767 222.247 174.03 223.425C174.292 224.604 174.812 225.713 175.552 226.677C176.292 227.641 177.235 228.437 178.318 229.011C179.4 229.585 180.596 229.922 181.824 230.001L278.076 236.187C280.792 236.362 283.477 235.55 285.621 233.906C287.765 232.263 289.217 229.902 289.699 227.276L328.574 15.6477C328.826 14.2779 328.768 12.8707 328.404 11.5253C328.04 10.18 327.38 8.92927 326.47 7.86145C325.559 6.79363 324.421 5.93474 323.135 5.34538C321.849 4.75603 320.447 4.45057 319.028 4.45057H308.626C307.619 4.45057 306.641 4.77601 305.842 5.37651C305.043 5.97701 304.468 6.81907 304.206 7.77232C303.975 8.61388 303.467 9.35727 302.762 9.8874C302.056 10.4175 301.192 10.7048 300.304 10.7048H250.922C249.181 10.7048 247.505 10.0607 246.228 8.90113C244.951 7.74159 244.168 6.15213 244.034 4.45056V4.45057Z" fill="white"/>
<path d="M141.004 109.767L149.491 126.242L174.867 137.554C177.577 142.045 186.188 142.388 186.814 139.484C187.517 136.227 176.357 130.983 176.357 130.983L155.132 116.906L153.275 104.787L141.004 109.767Z" fill="#A0616A"/>
<path d="M142.005 220.327L140.44 232.604L149.518 233.218L150.457 220.327H142.005Z" fill="#A0616A"/>
<path d="M143.258 230.763C142.446 229.921 141.698 229.023 141.018 228.076C139.717 226.311 138.562 235.367 138.562 235.367C138.562 235.367 137.31 239.05 137.623 240.892C137.936 242.733 145.136 242.733 146.388 242.426C147.64 242.119 153.9 242.426 153.9 242.426H163.291C171.43 238.743 163.291 236.288 163.291 236.288C160.787 235.981 152.335 228.307 152.335 228.307L150.457 224.931C149.205 224.624 147.953 229.228 147.953 229.228L143.258 230.763Z" fill="#2F2E41"/>
<path d="M118.529 220.48L116.963 232.758L126.041 233.372L126.98 220.48H118.529Z" fill="#A0616A"/>
<path d="M119.781 230.916C118.969 230.075 118.221 229.177 117.541 228.23C116.24 226.465 115.086 235.52 115.086 235.52C115.086 235.52 113.834 238.896 114.147 240.738C114.46 242.58 121.659 242.58 122.911 242.273C124.163 241.966 130.424 242.58 130.424 242.58H139.814C147.953 238.897 139.814 236.441 139.814 236.441C137.31 236.134 128.859 228.46 128.859 228.46L126.98 225.084C125.728 224.777 124.476 229.381 124.476 229.381L119.781 230.916Z" fill="#2F2E41"/>
<path d="M128.859 141.289C127.607 142.824 128.233 148.042 128.233 148.042C128.233 148.042 126.041 164.924 126.98 166.459C127.92 167.993 126.354 169.221 125.415 171.37C124.476 173.518 123.537 178.736 123.537 178.736C118.216 183.033 118.529 202.678 118.529 202.678L116.651 220.173C117.277 222.015 126.041 222.322 127.293 222.015C128.546 221.708 132.302 194.083 132.302 194.083L140.753 178.429C140.753 178.429 140.127 220.173 140.127 222.015C140.127 223.856 148.579 222.936 150.457 222.936C152.335 222.936 152.335 192.242 152.335 192.242L154.213 184.261L164.23 147.735V143.438L162.665 141.289C162.665 141.289 130.111 139.755 128.859 141.289Z" fill="#2F2E41"/>
<path d="M142.632 71.6138C147.991 71.6138 152.335 67.3537 152.335 62.0987C152.335 56.8436 147.991 52.5835 142.632 52.5835C137.272 52.5835 132.928 56.8436 132.928 62.0987C132.928 67.3537 137.272 71.6138 142.632 71.6138Z" fill="#A0616A"/>
<path d="M147.483 66.5493C145.517 70.8442 146.681 76.843 150.614 83.4311L134.65 76.0645L137.154 73.9159L136.528 67.7771L147.483 66.5493Z" fill="#A0616A"/>
<path d="M147.483 76.3715C149.574 77.5901 150.825 79.8293 151.542 82.1078C152.871 86.3263 153.671 90.6878 153.925 95.096L154.683 108.293L164.074 143.284C155.935 150.037 151.24 148.502 140.284 142.978C129.328 137.453 128.076 144.819 128.076 144.819C128.076 144.819 127.137 144.512 128.076 143.591C129.015 142.671 128.076 143.591 127.137 142.671C126.198 141.75 127.137 142.671 127.45 141.75C127.763 140.829 127.45 141.443 127.137 141.136C126.824 140.829 128.389 138.066 128.389 138.066L125.885 115.046L122.755 82.5102C126.511 77.9061 137.154 73.9159 137.154 73.9159L146.857 80.6686C149.988 81.8963 147.483 76.9853 147.483 76.9853L147.483 76.3715Z" fill="#096FB9"/>
<path d="M117.59 102.001L116.338 120.417L132.302 142.824C132.302 148.042 135.119 149.27 135.119 149.27C136.186 147.6 137.128 145.856 137.936 144.052C139.501 140.675 136.997 137.913 136.997 137.913L126.041 115.199L130.737 103.843L117.59 102.001Z" fill="#A0616A"/>
<path d="M122.911 82.6636C117.59 84.5052 116.651 104.456 116.651 104.456C122.911 101.08 130.424 106.605 130.424 106.605C130.424 106.605 131.989 101.387 133.867 94.6343C134.434 92.7348 134.502 90.7256 134.064 88.7936C133.626 86.8615 132.697 85.0695 131.363 83.5844C131.363 83.5844 128.233 80.822 122.911 82.6636Z" fill="#096FB9"/>
<path d="M133.71 65.0146C134.946 64.0455 136.631 65.807 136.631 65.807L137.619 57.0854C137.619 57.0854 143.796 57.8123 147.749 56.8432C151.702 55.8741 152.32 60.356 152.32 60.356C152.523 58.5461 152.565 56.7221 152.443 54.9051C152.196 52.7247 148.984 50.5443 143.302 49.0907C137.619 47.6371 134.655 53.936 134.655 53.936C130.701 55.8741 132.475 65.9836 133.71 65.0146Z" fill="#2F2E41"/>
<path d="M298.657 147.588C298.846 147.595 299.031 147.536 299.178 147.421C299.326 147.306 299.427 147.143 299.463 146.961L321.046 31.7691C321.066 31.6595 321.062 31.5467 321.034 31.4388C321.005 31.3309 320.953 31.2304 320.881 31.1443C320.809 31.0582 320.718 30.9886 320.615 30.9404C320.513 30.8922 320.401 30.8665 320.287 30.8652L222.094 29.7435H222.085C221.908 29.7442 221.736 29.8036 221.598 29.9122C221.459 30.0209 221.363 30.1722 221.323 30.3417L195.88 141.795C195.855 141.904 195.855 142.017 195.879 142.126C195.903 142.235 195.952 142.337 196.021 142.426C196.09 142.515 196.178 142.588 196.278 142.639C196.379 142.691 196.49 142.721 196.604 142.727L298.657 147.588Z" fill="#096FB9"/>
<path d="M213.204 154.946C213.116 154.946 213.03 154.976 212.961 155.029C212.892 155.083 212.844 155.158 212.824 155.242L211.917 159.054C211.904 159.107 211.904 159.163 211.915 159.218C211.926 159.272 211.95 159.323 211.983 159.368C212.017 159.412 212.06 159.449 212.109 159.476C212.159 159.503 212.213 159.518 212.27 159.522L263.5 163.093C263.595 163.099 263.689 163.071 263.765 163.014C263.84 162.957 263.892 162.875 263.911 162.784L264.783 158.375C264.794 158.321 264.793 158.266 264.78 158.213C264.767 158.16 264.743 158.11 264.709 158.067C264.675 158.024 264.632 157.989 264.582 157.963C264.533 157.938 264.479 157.923 264.424 157.92L213.227 154.947C213.219 154.947 213.211 154.946 213.204 154.946Z" fill="#E6E6E6"/>
<path d="M275.446 177.254C275.538 177.261 275.63 177.235 275.705 177.182C275.78 177.129 275.834 177.052 275.856 176.964L276.966 172.545C276.98 172.491 276.981 172.434 276.97 172.379C276.959 172.325 276.936 172.273 276.902 172.228C276.869 172.183 276.826 172.145 276.776 172.118C276.726 172.091 276.671 172.075 276.614 172.071L211.19 167.584C211.101 167.578 211.013 167.601 210.94 167.651C210.866 167.7 210.813 167.773 210.788 167.857L209.635 171.676C209.618 171.73 209.614 171.788 209.623 171.844C209.632 171.9 209.654 171.954 209.687 172.001C209.72 172.048 209.763 172.087 209.813 172.116C209.864 172.144 209.92 172.161 209.978 172.166L275.446 177.254Z" fill="#E6E6E6"/>
<path d="M271.932 191.417C272.025 191.425 272.117 191.399 272.192 191.346C272.267 191.293 272.32 191.216 272.342 191.127L273.453 186.709C273.466 186.654 273.468 186.598 273.457 186.543C273.446 186.488 273.422 186.437 273.389 186.391C273.355 186.346 273.312 186.309 273.262 186.282C273.212 186.255 273.157 186.239 273.1 186.235L207.677 181.748C207.588 181.741 207.499 181.765 207.426 181.814C207.353 181.864 207.3 181.937 207.275 182.021L206.121 185.839C206.105 185.894 206.101 185.952 206.11 186.008C206.119 186.064 206.141 186.118 206.174 186.165C206.206 186.212 206.25 186.251 206.3 186.279C206.35 186.308 206.406 186.325 206.464 186.33L271.932 191.417Z" fill="#E6E6E6"/>
<path d="M241.8 215.716C241.894 215.725 241.987 215.701 242.064 215.648C242.14 215.595 242.194 215.517 242.216 215.427L244.563 206.22C244.577 206.167 244.579 206.111 244.568 206.056C244.558 206.001 244.535 205.95 244.502 205.905C244.469 205.86 244.427 205.822 244.378 205.794C244.328 205.767 244.274 205.75 244.217 205.746L204.04 202.432C203.946 202.426 203.853 202.452 203.777 202.507C203.702 202.561 203.648 202.641 203.626 202.73L201.624 211.567C201.612 211.62 201.611 211.675 201.623 211.728C201.634 211.781 201.657 211.831 201.689 211.875C201.722 211.919 201.764 211.955 201.812 211.982C201.86 212.009 201.913 212.026 201.968 212.031L241.8 215.716Z" fill="#096FB9"/>
<g filter="url(#filter0_d)">
<path d="M262.149 64.6016L255.375 80.969L252.861 80.7932L249.224 67.0901L243.715 80.1536L241.154 79.9745L236.723 62.8237L239.189 62.9961L242.761 76.9353L248.431 63.6423L250.633 63.7964L254.296 77.814L259.875 64.4426L262.149 64.6016ZM266.514 64.9069L273.577 65.4008C275.349 65.5246 276.896 65.9857 278.22 66.784C279.543 67.5823 280.536 68.6461 281.196 69.9754C281.874 71.2899 282.156 72.7691 282.041 74.4131C281.926 76.0571 281.441 77.4908 280.585 78.7141C279.747 79.9225 278.617 80.8299 277.195 81.4362C275.773 82.0425 274.177 82.2837 272.405 82.1598L265.342 81.666L266.514 64.9069ZM272.407 80.0669C273.764 80.1617 274.971 79.9815 276.03 79.5263C277.104 79.0721 277.953 78.3937 278.578 77.491C279.203 76.5724 279.56 75.4907 279.647 74.2457C279.734 73.0008 279.531 71.8879 279.038 70.9071C278.547 69.9104 277.8 69.1124 276.8 68.5131C275.815 67.915 274.644 67.5685 273.288 67.4736L268.763 67.1572L267.882 79.7505L272.407 80.0669ZM233.499 93.7622L227.753 93.3604L227.899 91.2775L241.761 92.2468L241.615 94.3297L235.87 93.9279L234.843 108.604L232.473 108.438L233.499 93.7622ZM254.895 103.703C254.883 103.878 254.851 104.109 254.799 104.394L244.504 103.674C244.57 104.801 244.993 105.737 245.775 106.481C246.574 107.211 247.596 107.619 248.841 107.706C250.358 107.812 251.614 107.387 252.612 106.43L253.777 108.003C253.155 108.634 252.401 109.094 251.515 109.385C250.644 109.677 249.682 109.786 248.629 109.712C247.288 109.619 246.118 109.264 245.119 108.649C244.12 108.018 243.368 107.187 242.863 106.158C242.373 105.129 242.172 103.992 242.259 102.747C242.345 101.518 242.694 100.428 243.306 99.4762C243.934 98.5256 244.746 97.8125 245.741 97.3368C246.754 96.8463 247.867 96.6434 249.08 96.7282C250.293 96.8131 251.351 97.1677 252.253 97.7922C253.173 98.4018 253.862 99.2199 254.319 100.246C254.793 101.274 254.985 102.426 254.895 103.703ZM248.944 98.6675C247.843 98.5905 246.894 98.8609 246.097 99.4788C245.316 100.098 244.823 100.946 244.62 102.022L252.76 102.591C252.707 101.513 252.329 100.612 251.625 99.8895C250.939 99.1518 250.046 98.7445 248.944 98.6675ZM264.605 110.83C263.312 110.739 262.175 110.379 261.192 109.749C260.226 109.12 259.489 108.299 258.983 107.285C258.477 106.255 258.268 105.118 258.355 103.873C258.442 102.628 258.807 101.539 259.45 100.605C260.094 99.6557 260.937 98.9448 261.981 98.4724C263.041 97.9852 264.218 97.7868 265.511 97.8772C266.66 97.9576 267.666 98.2604 268.527 98.7858C269.404 99.3123 270.06 100.032 270.493 100.944L268.667 101.947C268.31 101.313 267.847 100.823 267.278 100.479C266.708 100.134 266.065 99.9369 265.346 99.8866C264.516 99.8286 263.753 99.9597 263.057 100.28C262.377 100.601 261.822 101.092 261.391 101.751C260.977 102.396 260.739 103.157 260.678 104.035C260.615 104.929 260.743 105.732 261.063 106.444C261.399 107.141 261.881 107.696 262.51 108.109C263.155 108.523 263.892 108.759 264.722 108.817C265.44 108.867 266.105 108.761 266.717 108.499C267.329 108.237 267.855 107.817 268.297 107.238L269.968 108.462C269.411 109.305 268.662 109.934 267.718 110.35C266.792 110.75 265.754 110.91 264.605 110.83ZM281.706 99.0097C283.318 99.1224 284.562 99.6826 285.438 100.69C286.331 101.683 286.715 103.081 286.588 104.885L286.078 112.187L283.779 112.026L284.272 104.987C284.358 103.758 284.127 102.812 283.58 102.148C283.033 101.484 282.209 101.114 281.107 101.037C279.862 100.95 278.855 101.248 278.086 101.932C277.317 102.6 276.885 103.613 276.791 104.969L276.334 111.505L274.035 111.345L275.277 93.58L277.576 93.7407L277.095 100.612C277.617 100.039 278.272 99.6116 279.062 99.33C279.867 99.0495 280.749 98.9427 281.706 99.0097Z" fill="white"/>
</g>
</g>
<defs>
<filter id="filter0_d" x="217.753" y="49.8237" width="78.8585" height="69.3631" filterUnits="userSpaceOnUse" color-interpolation-filters="sRGB">
<feFlood flood-opacity="0" result="BackgroundImageFix"/>
<feColorMatrix in="SourceAlpha" type="matrix" values="0 0 0 0 0 0 0 0 0 0 0 0 0 0 0 0 0 0 127 0"/>
<feOffset dy="-3"/>
<feGaussianBlur stdDeviation="5"/>
<feColorMatrix type="matrix" values="0 0 0 0 0 0 0 0 0 0 0 0 0 0 0 0 0 0 0.25 0"/>
<feBlend mode="normal" in2="BackgroundImageFix" result="effect1_dropShadow"/>
<feBlend mode="normal" in="SourceGraphic" in2="effect1_dropShadow" result="shape"/>
</filter>
<clipPath id="clip0">
<rect width="338" height="249" fill="white"/>
</clipPath>
</defs>
</svg>
